<svg width="93" height="29" viewBox="0 0 93 29" fill="none" xmlns="http://www.w3.org/2000/svg">
<path d="M91.9233 28.3282H92.0767L92.1534 28.2515C92.1534 28.2515 92.2301 28.2515 92.2301 28.1748C92.3068 28.0982 92.2301 28.0982 92.1534 28.0215C92.0767 27.9448 92.1534 27.8681 92.1534 27.7914C92.1534 27.7147 92.1534 27.638 92.0767 27.638C92 27.5613 92 27.4847 92 27.408C92 27.3313 92 27.3313 91.9233 27.2546C91.8466 27.1779 91.7699 27.1779 91.7699 27.0245C91.8466 26.8712 92.0767 26.8712 92 26.7178L91.8466 26.5644C91.7699 26.4877 91.8466 26.411 91.9233 26.3344C92 26.2577 92.0767 26.1043 92 25.9509C91.9233 25.8742 91.9233 25.8742 91.9233 25.7975V25.5675C92 25.4141 91.9233 25.3374 91.8466 25.184C91.7699 25.0307 91.9233 24.954 92.0767 24.8773C92.1534 24.8006 92.2301 24.8006 92.2301 24.7239C92.3068 24.6472 92.2301 24.5705 92.2301 24.4939C92.2301 24.4172 92.0767 24.2638 92.0767 24.1871C92.0767 24.0337 92.3068 24.0337 92.3068 23.8804C92.3068 23.8037 92 23.727 92.0767 23.6503C92.1534 23.5736 92.3834 23.5736 92.3834 23.4202C92.3834 23.3436 92.3068 23.3436 92.3068 23.3436V23.2669C92.3834 23.1902 92.3834 23.1135 92.3834 23.0368C92.3834 22.9601 92.3834 22.8834 92.3068 22.8067C92.2301 22.7301 92.3068 22.7301 92.3068 22.6534C92.3834 22.5767 92.3068 22.5 92.3068 22.4233C92.3068 22.3466 92.3068 22.2699 92.3834 22.1932V21.9632C92.3834 21.8865 92.3834 21.8098 92.3068 21.7331L92.1534 21.5797V21.3497C92.1534 21.273 92.3068 21.273 92.3068 21.273C92.3834 21.1963 92.3834 21.1196 92.3068 21.0429C92.3068 20.9663 92.2301 20.8896 92.2301 20.8129V20.5828V20.4294V20.2761C92.2301 20.1994 92.1534 20.1227 92.1534 20.046C92.1534 19.9693 92.2301 19.8926 92.2301 19.8159C92.2301 19.7393 92.1534 19.6626 92.1534 19.5859V19.3558V19.1258C92.1534 19.0491 92.0767 18.9724 92.0767 18.8957V18.6656C92.0767 18.5889 92.1534 18.5889 92.1534 18.5123C92.1534 18.3589 92.0767 18.2055 92.0767 18.1288C92.1534 18.0521 92.2301 18.0521 92.2301 18.0521C92.2301 18.0521 92.2301 17.9755 92.1534 17.8988C92.1534 17.8221 92.0767 17.7454 92.0767 17.6687C92.0767 17.592 92.0767 17.4386 92 17.362C92 17.2853 91.9233 17.0552 91.9233 16.9785C91.9233 16.9018 92 16.9018 92.0767 16.8251C92.1534 16.7485 92 16.6718 92 16.5951C92 16.5184 92.0767 16.4417 92.0767 16.4417V16.365C92 16.2883 92 16.365 91.9233 16.2883C91.8466 16.2116 92 16.2116 92 16.135C92.0767 16.0583 92.0767 15.9816 92 15.9816C91.9233 15.9049 91.9233 15.9049 91.9233 15.8282C91.9233 15.7515 92 15.8282 92 15.7515C92.0767 15.6748 92 15.7515 92 15.6748C92 15.5981 91.9233 15.5981 91.9233 15.5981C91.8466 15.5215 91.9233 15.4448 92 15.3681C92.0767 15.2914 92.0767 15.2147 92.0767 15.138C92.0767 15.0613 92 14.9846 92.0767 14.908C92.1534 14.8313 92.2301 14.7546 92.1534 14.6779C92.0767 14.6012 91.9233 14.6779 91.9233 14.5245C91.9233 14.3712 92.1534 14.2945 92 14.2178C91.9233 14.1411 91.8466 14.2178 91.9233 14.0644C91.9233 13.9877 91.9233 13.911 92 13.8343H90.2362C90.0061 13.7577 90.2362 13.5276 90.2362 13.4509C90.2362 13.3742 90.1595 13.2975 90.2362 13.2208C90.2362 13.2208 90.2362 13.1442 90.3129 13.1442V12.9908C90.3129 12.9141 90.2362 12.9141 90.1595 12.8374C90.0828 12.7607 90.1595 12.684 90.2362 12.6073C90.2362 12.5307 90.3129 12.454 90.3129 12.3773C90.3129 12.3006 90.2362 12.3006 90.1595 12.2239C90.0828 12.1472 90.2362 11.9938 90.2362 11.8405C90.3129 11.6871 90.3129 11.5337 90.2362 11.3804C90.2362 11.3037 90.2362 11.227 90.3129 11.1503V10.9202V10.6135C90.3129 10.5368 90.2362 10.4601 90.2362 10.3834V10.1534C90.2362 10.0767 90.2362 9.99998 90.3129 9.92329V9.69323C90.3129 9.61655 90.2362 9.53986 90.2362 9.46317C90.2362 9.3098 90.2362 9.15642 90.3129 9.00305C90.3896 8.84967 90.2362 8.6963 90.2362 8.54293V8.38955V8.23618C90.2362 8.0828 90.3896 7.85274 90.3896 7.69937V7.08587C90.3896 6.93249 90.3129 6.77912 90.3129 6.62575V6.39568C90.3129 6.319 90.2362 6.24231 90.2362 6.16562C90.2362 6.08893 90.3129 6.01225 90.3129 5.93556V5.7055C90.3129 5.62881 90.3129 5.55212 90.2362 5.47544C90.2362 5.39875 90.1595 5.32206 90.1595 5.24538V4.93863V4.63188C90.2362 4.55519 90.2362 4.55519 90.2362 4.4785V4.24844C90.2362 4.09507 90.3129 3.94169 90.3129 3.78832V3.25151C90.2362 3.09813 90.3129 2.94476 90.3896 2.79139C90.4663 2.63801 90.3896 2.56132 90.3896 2.40795C90.3896 2.33126 90.3896 2.25458 90.3129 2.17789C90.3129 2.1012 90.2362 2.1012 90.2362 2.02451C90.2362 1.94783 90.2362 1.94783 90.3129 1.87114C90.3129 1.79445 90.3896 1.71776 90.3896 1.64108C90.3896 1.56439 90.3129 1.56439 90.3129 1.4877C90.2362 1.33433 90.2362 1.18095 90.3129 1.02758C90.3129 0.950893 90.3896 0.797519 90.3896 0.720831V0.644144H90.2362L89.3926 0.414083C88.0123 0.49077 86.6319 0.49077 85.2515 0.49077C82.7209 0.567457 80.1135 0.567457 77.5828 0.49077L73.9018 0.414083C70.911 0.49077 67.9202 0.49077 65.0061 0.414083C62.7055 0.414083 60.3282 0.337395 58.0276 0.337395H51.5092C50.8957 0.337395 50.2822 0.337395 49.6687 0.414083C47.9816 0.49077 46.3712 0.49077 44.684 0.49077H37.3988C35.7883 0.49077 34.2546 0.414083 32.6442 0.414083C29.9601 0.337395 27.2761 0.337395 24.592 0.260708C22.8282 0.260708 21.0644 0.184021 19.3006 0.184021H14.2393C12.3988 0.260708 10.5583 0.337395 8.71779 0.337395C6.72392 0.49077 4.80675 0.49077 2.81288 0.49077H2.35276C2.27607 0.49077 2.35276 0.567457 2.35276 0.567457C2.35276 0.644144 2.35276 0.720831 2.42944 0.720831V0.950893C2.42944 1.02758 2.42944 1.10427 2.35276 1.25764C2.35276 1.33433 2.27607 1.41102 2.27607 1.4877C2.27607 1.71776 2.42944 1.79445 2.42944 1.94783C2.42944 2.02451 2.19938 2.33126 2.42944 2.33126C2.50613 2.33126 2.58282 2.25458 2.58282 2.33126C2.65951 2.40795 2.58282 2.48464 2.58282 2.56132C2.58282 2.63801 2.50613 2.63801 2.50613 2.7147C2.42944 2.7147 2.35276 2.7147 2.35276 2.79139C2.19938 3.02145 2.42944 3.09813 2.50613 3.25151V3.40488C2.50613 3.48157 2.50613 3.55826 2.58282 3.55826C2.65951 3.71163 2.65951 3.78832 2.50613 3.86501C2.35276 4.01838 2.19938 4.01838 2.19938 4.24844C2.19938 4.32513 2.19938 4.40182 2.27607 4.40182V4.55519C2.27607 4.63188 2.35276 4.63188 2.35276 4.63188C2.35276 4.70857 2.27607 4.70857 2.19938 4.78525C2.19938 4.86194 2.19938 4.93863 2.1227 5.01531C2.1227 5.092 2.1227 5.16869 2.19938 5.24538C2.27607 5.32206 2.27607 5.32206 2.27607 5.39875V5.85887C2.27607 5.93556 2.27607 6.01225 2.19938 6.08893C2.19938 6.16562 2.19938 6.24231 2.1227 6.24231C2.1227 6.319 2.04601 6.39568 2.04601 6.47237V6.70243C2.04601 6.77912 2.1227 6.85581 2.1227 6.85581C2.1227 6.93249 2.1227 6.93249 2.19938 7.00918C2.19938 7.08587 2.1227 7.16256 2.1227 7.16256C2.1227 7.31593 2.27607 7.39262 2.19938 7.54599C2.19938 7.85274 2.1227 7.92943 2.1227 8.0828C2.1227 8.15949 2.19938 8.23618 2.19938 8.23618C2.27607 8.31286 2.27607 8.38955 2.19938 8.38955C2.19938 8.46624 2.1227 8.46624 2.19938 8.46624L2.27607 8.54293C2.35276 8.61961 2.35276 8.61961 2.35276 8.6963C2.27607 8.77299 2.27607 8.77299 2.27607 8.84967C2.27607 8.92636 2.35276 8.92636 2.35276 9.07974C2.35276 9.15642 2.27607 9.23311 2.27607 9.3098C2.27607 9.3098 2.1227 9.38648 2.1227 9.46317C2.1227 9.53986 2.27607 9.46317 2.19938 9.61655C2.19938 9.69323 2.04601 9.69323 2.04601 9.76992C2.04601 9.84661 2.1227 9.84661 2.1227 9.92329C2.1227 9.99998 2.04601 9.99998 2.04601 9.99998C2.04601 9.99998 1.96932 10.0767 1.96932 10.1534C1.96932 10.23 2.04601 10.3067 2.1227 10.3067C2.19938 10.3834 2.27607 10.3834 2.19938 10.4601C2.1227 10.5368 2.04601 10.5368 1.96932 10.6135C1.89263 10.7669 2.1227 10.7669 2.19938 10.7669C2.35276 10.7669 2.50613 10.7669 2.42944 10.9202L2.27607 11.0736C2.27607 11.1503 2.27607 11.227 2.19938 11.3037C2.19938 11.3804 2.1227 11.3804 2.1227 11.457C2.1227 11.5337 2.19938 11.5337 2.19938 11.6104C2.19938 11.6871 2.19938 11.7638 2.27607 11.7638C2.27607 11.8405 2.35276 11.8405 2.35276 11.8405C2.35276 11.9172 2.35276 11.9172 2.27607 11.9938C2.19938 12.1472 2.50613 12.1472 2.50613 12.3006V12.454C2.50613 12.5307 2.50613 12.5307 2.42944 12.5307H0.680978V12.9141C0.680978 12.9908 0.604291 13.0675 0.680978 13.1442C0.680978 13.2975 0.834352 13.2975 0.834352 13.3742C0.834352 13.3742 0.757665 13.4509 0.757665 13.5276V13.6043C0.757665 13.681 0.834352 13.7577 0.757665 13.8343C0.680978 13.911 0.604291 13.8343 0.604291 13.911V14.1411C0.604291 14.2178 0.527604 14.2945 0.527604 14.3712C0.527604 14.4478 0.604291 14.5245 0.680978 14.6012C0.757665 14.6779 0.757665 14.7546 0.680978 14.7546C0.680978 14.8313 0.604291 14.8313 0.527604 14.8313C0.450917 14.908 0.527604 14.908 0.527604 14.9846L0.604291 15.0613V15.2147C0.604291 15.2914 0.680978 15.3681 0.680978 15.3681C0.757665 15.4448 0.834352 15.4448 0.834352 15.5215C0.834352 15.5981 0.757665 15.5981 0.680978 15.6748C0.604291 15.7515 0.604291 15.8282 0.604291 15.9049C0.604291 16.0583 0.757665 16.0583 0.834352 16.2116C0.911039 16.2883 0.834352 16.365 0.834352 16.4417C0.834352 16.5184 0.757665 16.5951 0.757665 16.6718C0.680978 16.7485 0.757665 16.8251 0.757665 16.9018V17.1319C0.757665 17.2086 0.757665 17.2853 0.680978 17.362C0.680978 17.4386 0.527604 17.4386 0.527604 17.5153C0.374229 17.592 0.374229 17.7454 0.374229 17.8988C0.374229 17.9755 0.450917 18.0521 0.450917 18.1288V18.2822C0.527604 18.3589 0.527604 18.4356 0.527604 18.5123V19.0491C0.527604 19.1258 0.604291 19.2024 0.527604 19.2791C0.450917 19.3558 0.527604 19.4325 0.527604 19.5092V19.6626C0.450917 19.8159 0.374229 19.8159 0.450917 19.9693C0.527604 20.1227 0.527604 20.2761 0.527604 20.4294C0.527604 20.5061 0.450917 20.5828 0.527604 20.6595C0.527604 20.7362 0.604291 20.8129 0.604291 20.8896C0.604291 21.0429 0.450917 21.1963 0.450917 21.3497V21.5797C0.450917 21.6564 0.450917 21.8098 0.527604 21.8865V22.4233C0.527604 22.5 0.604291 22.5767 0.604291 22.6534C0.604291 22.7301 0.680978 22.8067 0.680978 22.9601C0.757665 23.1135 0.834352 23.1902 0.911039 23.3436C0.911039 23.4969 0.834352 23.5736 0.834352 23.727C0.911039 23.8804 1.06441 23.8804 1.06441 24.0337C1.06441 24.1104 0.987726 24.1871 0.987726 24.2638C0.987726 24.3405 0.987726 24.4172 1.06441 24.4939C1.1411 24.5705 1.1411 24.5705 1.21779 24.5705H4.05521V25.0307C4.05521 25.1074 4.05521 25.184 3.97852 25.184C3.97852 25.2607 3.90184 25.2607 3.90184 25.3374C3.90184 25.4141 3.90184 25.4141 3.97852 25.4908C4.05521 25.5675 3.97852 25.6442 3.97852 25.7209V25.8742C3.97852 25.9509 3.97852 26.0276 3.90184 26.0276C3.82515 26.181 3.82515 26.3344 3.90184 26.4877V26.8712C3.90184 26.9479 3.82515 27.0245 3.90184 27.1012C3.90184 27.1779 3.90184 27.1779 3.97852 27.1779V27.3313C3.97852 27.4847 3.97852 27.638 4.05521 27.7147C4.1319 27.8681 3.97852 27.8681 3.97852 28.0215C3.97852 28.0982 3.97852 28.1748 4.05521 28.1748C4.1319 28.2515 4.1319 28.1748 4.20859 28.1748H7.50613C9.73006 28.0982 11.8773 28.0982 14.1012 28.0215H18.8558C20.5429 28.0215 22.3067 28.0982 24.0705 28.0982L31.9693 28.2515C33.7331 28.2515 35.4202 28.3282 37.184 28.3282L44.7761 28.2515C47 28.2515 49.1472 28.1748 51.3712 28.1748H57.1227L63.5644 28.2515L72.5368 28.3282C73.9172 28.3282 75.2975 28.4049 76.6012 28.4049H84.4233C85.8037 28.4049 87.2607 28.3282 88.6411 28.2515C89.7761 28.2515 90.8497 28.2515 91.9233 28.3282Z" fill="white"/>
<path d="M65.4509 20.3375C65.7577 20.1074 66.1411 19.8006 66.4479 19.5706C69.5153 17.1933 72.7362 14.7393 72.7362 11.2117C72.7362 8.37423 70.7423 6.45705 67.8282 6.45705C65.2975 6.45705 62.5368 8.14417 62.5368 11.9018V12.4387L64.6074 11.6718C64.6074 9.60123 66.1411 8.5276 67.6748 8.5276C69.1319 8.5276 70.6656 9.44785 70.6656 11.5184C70.6656 14.2025 67.9049 16.3497 64.0706 19.2638C63.5337 19.6473 62.9969 20.1074 62.3834 20.5675V22.5614H73.2117V20.4141C73.1963 20.4141 65.4509 20.3375 65.4509 20.3375ZM13.7178 13.3589L13.5644 13.2822C11.8773 12.592 10.6503 11.9785 10.6503 10.4448C10.6503 8.91104 11.8773 8.14417 13.0276 8.14417C13.9479 8.14417 15.1748 8.68098 15.635 9.7546L17.6288 8.98773V8.91104C16.862 6.91717 14.7914 6.07361 13.0276 6.07361C10.8037 6.07361 8.3497 7.53067 8.3497 10.5982C8.3497 13.6657 10.6503 14.5859 12.5675 15.3528L12.7975 15.4295C14.7147 16.1963 15.9417 16.8865 15.9417 18.4203C15.9417 20.0307 14.5614 20.7976 13.2577 20.7976C11.954 20.7976 10.3436 20.1074 9.88344 18.1135V18.0368L7.7362 18.8804C8.3497 21.3344 10.4969 22.9448 13.181 22.9448C14.5614 22.9448 15.7883 22.5614 16.7086 21.7945C17.7822 20.951 18.319 19.724 18.319 18.2669C18.319 15.1994 15.865 14.2025 13.7178 13.3589ZM36.3558 10.5215C33.0583 10.5215 30.6043 13.1288 30.6043 16.6565C30.6043 20.1841 32.9816 22.7915 36.3558 22.7915C39.7301 22.7915 42.1074 20.1841 42.1074 16.6565C42.1227 13.1288 39.6687 10.5215 36.3558 10.5215ZM39.9755 16.6565C39.9755 19.3405 38.135 20.7976 36.3712 20.7976C34.5307 20.7976 32.6902 19.3405 32.6902 16.6565C32.6902 14.2792 34.2239 12.5153 36.3712 12.5153C38.4417 12.5153 39.9755 14.2792 39.9755 16.6565ZM50.865 17.5767C50.865 19.724 49.2546 20.8743 47.7976 20.8743C46.6472 20.8743 45.4203 20.1841 45.4203 18.3436V10.9049H43.3497V18.3436C43.3497 21.6411 45.4969 22.8681 47.3374 22.8681C48.7945 22.8681 50.0982 22.178 50.7883 21.0276L51.1718 22.6381H52.8589V10.8129H50.7883C50.7883 10.8282 50.865 17.5767 50.865 17.5767ZM58.319 7.53067L56.2485 8.29754V10.8282H54.3313V12.6687H56.2485V19.0338C56.2485 22.2546 58.089 22.7148 59.1626 22.7148C59.6994 22.7148 60.1595 22.6381 60.6963 22.4847H60.773V20.4141L60.6196 20.4908C60.3129 20.7209 60.0061 20.7976 59.6227 20.7976C58.7791 20.7976 58.319 20.1841 58.319 19.1872V12.6687H60.773V10.8282H58.319V7.53067ZM82.6442 16.5031V11.7485L80.5736 12.5153V16.5031H75.819L81.5706 6.67177H79.2699L73.2117 17.0399V18.5737H80.5736V22.4847H82.6442V18.5737H85.4049V16.5031H82.6442V16.5031ZM28.1503 18.9571C27.5368 20.0307 26.3865 20.7976 25.1595 20.7976C23.3957 20.7976 21.6319 19.4939 21.6319 16.6565C21.6319 14.6626 22.7055 12.592 25.0061 12.592C26.1564 12.592 27.2301 13.2055 27.7669 14.2025L29.7607 13.4356L29.6841 13.3589C28.8405 11.5951 27.0767 10.5215 25.0061 10.5215C23.6258 10.5215 22.2454 11.0583 21.2485 12.0552C20.1749 13.1288 19.5614 14.7393 19.5614 16.6565C19.5614 20.8743 22.3988 22.7915 25.0828 22.7915C27.1534 22.7915 28.9939 21.6411 29.9908 19.8006L30.0675 19.724L28.1503 18.9571Z" fill="black"/>
</svg>
