<svg width="47" height="47" viewBox="0 0 47 47" fill="none" xmlns="http://www.w3.org/2000/svg">
<path d="M29.2689 5.58594L41.3659 17.6819" stroke="white" stroke-width="1.5" stroke-miterlimit="10"/>
<path d="M24.331 8.46508C18.489 5.94908 11 7.50008 5.5 14.5001L12.234 21.2361" stroke="white" stroke-width="1.5" stroke-miterlimit="10" stroke-linejoin="round"/>
<path d="M38.535 22.6689C41.051 28.5109 39.5 35.9999 32.5 41.4999L25.764 34.7659" stroke="white" stroke-width="1.5" stroke-miterlimit="10" stroke-linejoin="round"/>
<path d="M20.5 37.5L9.5 26.5C9.5 26.5 18.394 2.914 45.5 1.5C43.968 28.488 20.5 37.5 20.5 37.5Z" stroke="white" stroke-width="1.5" stroke-miterlimit="10" stroke-linecap="square" stroke-linejoin="round"/>
<path d="M26.5 24.5C28.7091 24.5 30.5 22.7091 30.5 20.5C30.5 18.2909 28.7091 16.5 26.5 16.5C24.2909 16.5 22.5 18.2909 22.5 20.5C22.5 22.7091 24.2909 24.5 26.5 24.5Z" fill="white"/>
<path d="M3.964 35.9639C4.90181 35.0261 6.17374 34.4993 7.5 34.4993C8.82626 34.4993 10.0982 35.0261 11.036 35.9639C11.9738 36.9017 12.5007 38.1737 12.5007 39.4999C12.5007 40.8262 11.9738 42.0981 11.036 43.0359C9.083 44.9879 1.5 45.4999 1.5 45.4999C1.5 45.4999 2.012 37.9169 3.964 35.9639Z" stroke="white" stroke-width="1.5" stroke-miterlimit="10" stroke-linecap="square" stroke-linejoin="round"/>
</svg>
