<svg width="99" height="28" viewBox="0 0 99 28" fill="none" xmlns="http://www.w3.org/2000/svg">
<path d="M40.05 15.489V21H36.827V5.35899H42.929C44.103 5.35899 45.137 5.57399 46.028 6.00399C46.92 6.43399 47.605 7.04399 48.085 7.83599C48.565 8.62699 48.805 9.52799 48.805 10.538C48.805 12.071 48.28 13.279 47.231 14.163C46.182 15.047 44.73 15.49 42.875 15.49H40.05V15.489ZM40.05 12.879H42.929C43.781 12.879 44.431 12.678 44.879 12.277C45.327 11.876 45.55 11.303 45.55 10.558C45.55 9.79199 45.324 9.17199 44.873 8.69999C44.422 8.22699 43.799 7.98399 43.004 7.96999H40.05V12.879ZM57.345 12.288C56.975 12.2348 56.6018 12.206 56.228 12.202C55.054 12.202 54.284 12.599 53.918 13.394V20.999H50.814V9.37599H53.747L53.833 10.762C54.456 9.69499 55.319 9.16099 56.422 9.16099C56.766 9.16099 57.088 9.20799 57.389 9.30099L57.346 12.287L57.345 12.288ZM64.188 21.215C62.484 21.215 61.096 20.692 60.025 19.647C58.954 18.601 58.419 17.209 58.419 15.468V15.167C58.419 14 58.645 12.956 59.096 12.036C59.547 11.116 60.186 10.407 61.013 9.90899C61.84 9.41099 62.784 9.16199 63.844 9.16199C65.434 9.16199 66.685 9.66299 67.598 10.666C68.511 11.669 68.968 13.09 68.968 14.931V16.199H61.567C61.667 16.958 61.97 17.567 62.475 18.025C62.98 18.483 63.619 18.713 64.392 18.713C65.588 18.713 66.523 18.28 67.196 17.413L68.721 19.121C68.256 19.78 67.625 20.294 66.83 20.663C66.035 21.032 65.154 21.216 64.187 21.216L64.188 21.215ZM63.834 11.676C63.218 11.676 62.719 11.884 62.335 12.299C61.952 12.714 61.707 13.309 61.599 14.082H65.917V13.835C65.903 13.147 65.716 12.616 65.358 12.24C65 11.864 64.491 11.676 63.833 11.676H63.834ZM81.193 15.296C81.193 17.086 80.787 18.52 79.974 19.598C79.161 20.676 78.064 21.215 76.682 21.215C75.508 21.215 74.559 20.807 73.835 19.99V25.469H70.731V9.37699H73.61L73.717 10.516C74.469 9.61399 75.45 9.16199 76.66 9.16199C78.092 9.16199 79.206 9.69199 80.001 10.752C80.796 11.812 81.193 13.273 81.193 15.135V15.296V15.296ZM78.089 15.07C78.089 13.989 77.897 13.154 77.514 12.567C77.131 11.98 76.574 11.686 75.844 11.686C74.87 11.686 74.2 12.058 73.835 12.803V17.562C74.215 18.328 74.891 18.711 75.865 18.711C77.347 18.711 78.089 17.497 78.089 15.069V15.07ZM86.393 21H83.278V4.49999H86.393V21ZM93.289 16.606L95.437 9.37699H98.767L94.094 22.805L93.836 23.417C93.141 24.935 91.996 25.694 90.398 25.694C89.947 25.694 89.488 25.626 89.023 25.49V23.137L89.496 23.148C90.083 23.148 90.522 23.058 90.812 22.879C91.102 22.7 91.329 22.403 91.494 21.987L91.859 21.031L87.788 9.37599H91.129L93.288 16.605L93.289 16.606ZM12.599 6.53899V19.074C11.516 18.497 10.094 18.095 8.557 17.661C6.245 17.008 3.623 16.268 1.864 14.76C1.315 14.289 0.905 13.773 0.637 13.215C0.371475 12.6557 0.237064 12.0431 0.244 11.424V0.667992L0.249 0.665992L0.378 0.653992L0.45 0.684992C2.56 2.54099 5.456 3.35899 8.005 4.07899C10.503 4.78499 12.599 5.37699 12.599 6.53799V6.53899ZM14.683 6.28499C14.967 5.28799 16.933 4.73299 19.242 4.07999C21.792 3.35999 24.687 2.54199 26.797 0.685992L26.869 0.654992L26.998 0.666992L27.002 0.668992V11.425C27.002 11.633 26.988 11.835 26.962 12.032L26.71 11.807C25.447 10.725 23.916 10.003 22.349 9.44399C23.084 9.17599 23.809 8.86999 24.496 8.50599C24.6294 8.43542 24.7293 8.31484 24.774 8.17069C24.8186 8.02653 24.8042 7.87057 24.734 7.73699C24.6994 7.67092 24.652 7.61234 24.5947 7.5646C24.5373 7.51686 24.4712 7.48091 24.3999 7.4588C24.3286 7.43669 24.2537 7.42886 24.1794 7.43576C24.1052 7.44265 24.033 7.46414 23.967 7.49899C22.895 8.06699 21.701 8.49099 20.515 8.85399L19.241 8.48899C18.559 8.29599 17.908 8.11199 17.321 7.92299C17.881 7.74499 18.488 7.57299 19.119 7.39499C20.874 6.89899 22.798 6.35599 24.496 5.45499C24.6193 5.37939 24.7093 5.25974 24.7476 5.12029C24.786 4.98084 24.7699 4.83202 24.7027 4.70398C24.6354 4.57594 24.522 4.47826 24.3854 4.43072C24.2488 4.38319 24.0992 4.38936 23.967 4.44799C22.376 5.29199 20.512 5.81799 18.812 6.29899C17.679 6.61899 16.613 6.91999 15.713 7.28699C15.165 6.99899 14.795 6.67599 14.683 6.28499V6.28499ZM14.648 21.585V9.04999C15.731 9.62699 17.153 10.029 18.69 10.463C21.002 11.116 23.624 11.857 25.382 13.364C25.931 13.835 26.341 14.351 26.61 14.909C26.875 15.4681 27.0094 16.0802 27.003 16.699V27.455L26.999 27.457L26.87 27.469L26.798 27.438C24.688 25.582 21.792 24.764 19.243 24.044C16.745 23.338 14.649 22.746 14.649 21.585H14.648ZM11.534 20.837C12.082 21.125 12.452 21.448 12.564 21.839C12.28 22.837 10.315 23.392 8.005 24.044C5.455 24.764 2.56 25.582 0.45 27.438L0.378 27.469L0.249 27.457L0.244 27.455V16.699C0.244 16.492 0.257 16.289 0.284 16.092L0.536 16.317C1.799 17.399 3.331 18.122 4.897 18.68C4.162 18.948 3.437 19.254 2.75 19.618C2.61662 19.6886 2.51666 19.8091 2.47205 19.9533C2.42743 20.0975 2.4418 20.2534 2.512 20.387C2.658 20.665 3.002 20.772 3.279 20.625C4.351 20.057 5.545 19.633 6.731 19.269L8.005 19.634C8.687 19.826 9.338 20.01 9.925 20.2C9.366 20.378 8.758 20.549 8.127 20.728C6.372 21.224 4.448 21.767 2.75 22.667C2.61662 22.7376 2.51666 22.8581 2.47205 23.0023C2.42743 23.1465 2.4418 23.3024 2.512 23.436C2.658 23.714 3.002 23.821 3.279 23.674C4.87 22.83 6.734 22.304 8.434 21.824C9.567 21.504 10.633 21.202 11.534 20.836V20.837Z" fill="white"/>
</svg>
