<svg width="46" height="46" viewBox="0 0 46 46" fill="none" xmlns="http://www.w3.org/2000/svg">
<path d="M36.797 21.502C37.255 23.089 37.5 24.766 37.5 26.5C37.5 36.441 29.441 44.5 19.5 44.5C9.559 44.5 1.5 36.441 1.5 26.5C1.5 16.559 9.559 8.5 19.5 8.5C21.236 8.5 22.915 8.746 24.503 9.204" stroke="white" stroke-width="1.5" stroke-miterlimit="10" stroke-linecap="round"/>
<path d="M19.5 36.5C25.0228 36.5 29.5 32.0228 29.5 26.5C29.5 20.9772 25.0228 16.5 19.5 16.5C13.9772 16.5 9.5 20.9772 9.5 26.5C9.5 32.0228 13.9772 36.5 19.5 36.5Z" stroke="white" stroke-width="1.5" stroke-miterlimit="10" stroke-linecap="square"/>
<path d="M19.5 26.5L42.5 3.5" stroke="white" stroke-width="1.5" stroke-miterlimit="10" stroke-linecap="round"/>
<path d="M38.5 7.5L36.5 1.5L30.5 7.5L32.5 13.5L38.5 15.5L44.5 9.5L38.5 7.5Z" fill="white" stroke="white" stroke-width="1.5" stroke-miterlimit="10" stroke-linecap="square" stroke-linejoin="round"/>
</svg>
