<?xml version="1.0" encoding="UTF-8"?>
<svg width="96px" height="30px" viewBox="0 0 96 30" version="1.1" xmlns="http://www.w3.org/2000/svg" xmlns:xlink="http://www.w3.org/1999/xlink">
    <title>fastic-white</title>
    <defs>
        <linearGradient x1="64.7769619%" y1="28.0600983%" x2="47.2186851%" y2="52.3666098%" id="linearGradient-1">
            <stop stop-color="#FFFFFF" offset="16%"></stop>
            <stop stop-color="#FFFFFF" offset="90%"></stop>
        </linearGradient>
        <linearGradient x1="98.2915929%" y1="57.7074151%" x2="4.83765211%" y2="37.0958291%" id="linearGradient-2">
            <stop stop-color="#FFFFFF" offset="0%"></stop>
            <stop stop-color="#FFFFFF" offset="100%"></stop>
        </linearGradient>
    </defs>
    <g id="Page-1" stroke="none" stroke-width="1" fill="none" fill-rule="evenodd">
        <g id="fastic-white" fill-rule="nonzero">
            <path d="M16.3182,0 C16.5909,0 16.8523,0.0568182 17.1023,0.170455 C17.3523,0.272727 17.5795,0.420455 17.7727,0.613636 C17.9545,0.806818 18.1136,1.03409 18.2159,1.28409 C18.3182,1.53409 18.375,1.79545 18.375,2.06818 C18.375,2.5 18.2386,2.90909 17.9659,3.26136 C17.7159,3.61364 17.3636,3.875 16.9545,4.01136 C16.5682,4.15909 16.2273,4.43182 15.9886,4.77273 C15.9402759,4.84177506 15.8966117,4.91361681 15.8577019,4.98778319 C15.7368279,5.22321632 15.6604231,5.48185347 15.6346961,5.74513143 L15.625,5.94318 L15.625,13.5909 C15.625,14.1364 15.4091,14.6591 15.0227,15.0455 C14.6364,15.4318 14.1136,15.6477 13.5682,15.6477 C13.0227,15.6477 12.5,15.4318 12.1136,15.0455 C11.7702222,14.7020333 11.5614815,14.2508728 11.5193339,13.7717332 L11.5114,13.5909 L11.5114,4.80682 C11.5114,3.53409 12.0227,2.30682 12.9204,1.40909 C13.8295,0.511364 15.0454,0 16.3182,0 Z" id="Path" fill="url(#linearGradient-1)"></path>
            <path d="M21.4082283,5.23618071 L21.5682,5.34091 L21.5682,5.34091 C22.00452,5.659086 22.426312,6.0063628 22.8219536,6.37690872 L23.1704,6.71591 L23.3864,6.94318 L23.4318,6.98863 C24.302295,7.91660634 25.0318463,8.95288669 25.6065083,10.0637014 L25.8640473,10.5878375 L25.9553247,10.7896764 C26.2311873,11.4060185 26.4584999,12.0411528 26.6372374,12.6894364 L26.7240243,13.0205543 L26.8123168,13.3988489 L26.8956326,13.8110735 C27.0204871,14.4766503 27.0954162,15.1539483 27.1184703,15.8372279 L27.1260843,16.3537003 L27.124074,16.5550296 C27.0706446,19.6310841 25.9775683,22.5964758 24.0186494,24.9606557 C23.8428346,25.1812836 23.6586249,25.3956148 23.4662494,25.6030928 L23.1715905,25.9091 L22.8436407,26.2271815 C20.8745867,28.0724762 18.4097928,29.2737064 15.7695637,29.7069419 C15.1128104,29.8156256 14.4456974,29.8759531 13.7734537,29.8860166 L13.3526767,29.8860166 C12.6804331,29.8759531 12.01332,29.8156256 11.3563992,29.7071221 C8.7163377,29.2737064 6.25154379,28.0724762 4.28248975,26.2271815 L3.95454,25.9091 C3.65381408,25.6083719 3.37120331,25.2915975 3.10748107,24.9606557 C1.14305191,22.5898255 0.0493432719,19.6143964 0.00163024651,16.5290687 L0,16.3182 C0,16.1576243 0.00279500393,15.9972387 0.00837551191,15.8371144 C0.0307143135,15.1539483 0.105643418,14.4766503 0.230239136,13.8106815 L0.283383847,13.5418485 L0.341986221,13.2726933 L0.451621637,12.8274727 L0.485551072,12.7047126 C0.631883157,12.1690589 0.811831601,11.642527 1.02459391,11.1279931 L1.24120565,10.6339812 C1.26644013,10.5781736 1.29243245,10.5228816 1.31881473,10.4677485 C1.85393352,9.34418512 2.54415431,8.29054119 3.37584268,7.34013007 L3.69433049,6.98863 L3.73973049,6.94318 L3.49745494,7.20834146 L3.35463105,7.3727462 L3.226,7.52551625 L3.52072235,7.18983891 C4.14360163,6.50074568 4.83694294,5.87373675 5.59091,5.31818 C5.88636,5.11364 6.22727,4.97727 6.57955,4.94318 C6.94318,4.90909 7.29545,4.96591 7.625,5.10227 C7.95455,5.23864 8.23864,5.46591 8.45455,5.75 C8.67045,6.03409 8.80682,6.375 8.85227,6.72727 L8.84019978,6.73084016 C8.88602742,7.09365179 8.84036186,7.46716189 8.69318,7.80682 C8.55681,8.14773 8.31817,8.44319 8.02272,8.6591 C7.62499,8.95455 7.24999,9.27273 6.89772,9.62501 C6.63866484,9.88406759 6.39230864,10.1551536 6.15946176,10.437134 C4.83566493,12.1001374 4.10227,14.1674752 4.10227,16.3182 C4.10227,18.8295 5.10227,21.2273 6.875,23 C7.557471,23.6824838 8.32344057,24.276795 9.15215106,24.7681721 C8.73766491,24.4973467 8.33643467,24.2096092 7.94966635,23.912845 L7.87663204,23.8535787 C9.42201609,25.0251908 11.2957426,25.6993309 13.252625,25.7670476 L13.5795,25.7727 C15.8198951,25.7727 17.9698049,24.9768753 19.6662333,23.5465968 C19.8670996,23.3708972 20.0623108,23.1888232 20.2511305,23 C22.0238605,21.2273 23.0238605,18.8295 23.0238605,16.3182 C23.0238605,14.1674752 22.2904656,12.1001374 20.9666687,10.437134 C20.7338218,10.1551536 20.4874656,9.88406759 20.2284105,9.62501 C19.8761405,9.27273 19.5011405,8.95455 19.1034105,8.6591 C18.8079605,8.44319 18.5693205,8.14773 18.4329505,7.80682 C18.3102989,7.52377158 18.2581448,7.21721482 18.2706877,6.91293126 L18.2859307,6.73084016 L18.2738605,6.72727 C18.3193105,6.375 18.4556805,6.03409 18.6715805,5.75 C18.8874905,5.46591 19.1715805,5.23864 19.5011305,5.10227 C19.8306805,4.96591 20.1829505,4.90909 20.5465805,4.94318 C20.8494177,4.97248544 21.1438525,5.07737545 21.4082283,5.23618071 Z" id="Path" fill="url(#linearGradient-2)"></path>
            <path d="M37.0796,8.79546 C36.5568,9.36364 36.2955,10.1136 36.2955,11.0455 L36.2955,11.6705 L39.0114,11.6705 C39.2955,11.6591 39.5796,11.7614 39.7955,11.9432 C39.8977,12.0341 39.9773,12.1477 40.0227,12.2727 C40.0796,12.3977 40.1023,12.5341 40.0909,12.6705 C40.0909,12.7955 40.0682,12.9318 40.0114,13.0455 C39.9546,13.1591 39.8864,13.2727 39.7841,13.3523 C39.5682,13.5455 39.2841,13.6364 39,13.625 L36.2841,13.625 L36.2841,22.5796 C36.2955,22.7386 36.2614,22.8864 36.2159,23.0341 C36.1591,23.1818 36.0796,23.3182 35.9659,23.4318 C35.75,23.6477 35.4546,23.75 35.0682,23.75 C34.9205,23.75 34.7727,23.7273 34.6364,23.6705 C34.5,23.6136 34.375,23.5341 34.2727,23.4318 C34.1591,23.3182 34.0796,23.1932 34.0114,23.0455 C33.9546,22.8977 33.9318,22.7386 33.9318,22.5796 L33.9318,13.6364 L32.9546,13.6364 C32.6705,13.6477 32.3864,13.5455 32.1705,13.3636 C32.0796,13.2727 32,13.1705 31.9432,13.0568 C31.8864,12.9432 31.8637,12.8068 31.8637,12.6818 C31.8523,12.5455 31.8864,12.4091 31.9318,12.2841 C31.9887,12.1591 32.0568,12.0455 32.1591,11.9545 C32.375,11.7614 32.6591,11.6705 32.9432,11.6818 L33.9318,11.6818 L33.9318,11.2955 C33.9318,10.2045 34.1477,9.25 34.5909,8.43182 C35.0114,7.63637 35.6477,6.96591 36.4318,6.52273 C37.25,6.05682 38.1818,5.82955 39.1364,5.84091 C39.4432,5.82955 39.7387,5.93182 39.9773,6.13637 C40.0796,6.22727 40.1705,6.35227 40.2273,6.47727 C40.2841,6.60227 40.3182,6.75 40.3182,6.88637 C40.3182,7.02273 40.2841,7.17046 40.2273,7.29546 C40.1705,7.42046 40.0909,7.54546 39.9773,7.63637 C39.75,7.84091 39.4432,7.94318 39.1364,7.93182 C38.2841,7.94318 37.5909,8.22728 37.0796,8.79546 Z M50.5114,11.9091 C49.5341,11.3409 48.4318,11.0568 47.3068,11.0682 C46.1705,11.0568 45.0568,11.3409 44.0796,11.9091 C43.125,12.4545 42.3296,13.25 41.7955,14.2046 C41.2387,15.1932 40.9546,16.3182 40.9659,17.4546 C40.9546,18.5796 41.2159,19.7046 41.7387,20.7046 C42.2273,21.6477 42.9546,22.4318 43.8523,22.9886 C45.0341,23.7159 46.4432,23.9886 47.8068,23.75 C49.1705,23.5227 50.4091,22.7955 51.2841,21.7273 L51.2841,22.5796 C51.2841,22.8864 51.4091,23.1932 51.625,23.4091 C51.8409,23.625 52.1477,23.75 52.4546,23.75 C52.7614,23.75 53.0682,23.625 53.2841,23.4091 C53.5,23.1932 53.625,22.8864 53.625,22.5796 L53.625,17.4546 C53.6364,16.3182 53.3523,15.1932 52.7841,14.2046 C52.2387,13.25 51.4546,12.4545 50.5114,11.9091 Z M50.8409,19.6477 C50.5796,20.125 50.2273,20.5455 49.7955,20.875 C49.3637,21.2159 48.875,21.4546 48.3523,21.6023 C47.8296,21.75 47.2841,21.7841 46.7387,21.7159 C46.2046,21.6477 45.6818,21.4659 45.2159,21.1932 C44.6023,20.8182 44.0909,20.2841 43.75,19.6477 C43.3864,18.9773 43.1932,18.2159 43.2046,17.4546 C43.1932,16.6818 43.375,15.9205 43.75,15.25 C44.0909,14.6136 44.6023,14.0796 45.2159,13.6932 C45.6818,13.4091 46.2046,13.2273 46.7387,13.1477 C47.2841,13.0682 47.8296,13.1136 48.3523,13.25 C48.875,13.3977 49.375,13.6477 49.7955,13.9886 C50.2159,14.3296 50.5682,14.7614 50.8296,15.2386 C51.1818,15.9205 51.3637,16.6818 51.3523,17.4432 C51.375,18.2159 51.2046,18.9773 50.8409,19.6477 Z M75.1818,21.4318 L74.0227,21.4318 C73.7841,21.4318 73.5455,21.375 73.3296,21.2727 C73.1137,21.1705 72.9318,21.0114 72.7841,20.8182 C72.4432,20.3864 72.2614,19.8409 72.2727,19.2841 L72.2727,13.6136 L74.6023,13.6136 C74.8864,13.625 75.1705,13.5227 75.3864,13.3409 C75.4773,13.25 75.5568,13.1477 75.6137,13.0341 C75.6705,12.9205 75.6932,12.7841 75.6932,12.6591 C75.7046,12.5227 75.6705,12.3864 75.625,12.2614 C75.5682,12.1364 75.5,12.0227 75.3977,11.9318 C75.1818,11.7386 74.8977,11.6477 74.6137,11.6591 L72.2841,11.6591 L72.2841,8.30682 C72.2841,8 72.1591,7.70455 71.9432,7.5 C71.7273,7.28409 71.4318,7.15909 71.1364,7.15909 C70.8296,7.15909 70.5341,7.28409 70.3296,7.5 C70.1137,7.71591 69.9887,8.01137 69.9887,8.30682 L69.9887,11.6136 L68.9318,11.6136 C68.6477,11.6023 68.3637,11.7045 68.1477,11.8864 C68.0455,11.9773 67.9659,12.0909 67.9205,12.2159 C67.8637,12.3409 67.8409,12.4773 67.8523,12.6136 C67.8523,12.7386 67.875,12.875 67.9318,12.9886 C67.9887,13.1023 68.0568,13.2159 68.1591,13.2955 C68.375,13.4886 68.6591,13.5796 68.9432,13.5682 L70,13.5682 L70,19.2386 C69.9887,20.0227 70.1705,20.8068 70.5341,21.5114 C70.8637,22.1705 71.375,22.7159 71.9887,23.1136 C72.6023,23.5 73.3182,23.7046 74.0455,23.6932 L74.8296,23.6932 C75.1818,23.7046 75.5341,23.5909 75.8068,23.375 C75.9318,23.2727 76.0227,23.1477 76.0909,23 C76.1591,22.8523 76.1932,22.7046 76.1818,22.5455 C76.1932,22.2386 76.0909,21.9432 75.8977,21.7159 C75.8068,21.6136 75.7046,21.5341 75.5796,21.4773 C75.4432,21.4546 75.3182,21.4318 75.1818,21.4318 Z M61.5341,16.3296 C59.3977,15.8523 58.5341,15.5114 58.5682,14.4659 C58.6023,13.4205 59.9546,13.1136 60.9773,13.1136 C62.2273,13.1136 63.1818,13.2955 64.1364,14.0909 C64.6818,14.5341 65.2955,14.4886 65.625,14.1591 C65.9773,13.8068 65.8864,13.2841 65.5682,12.8864 C64.8977,12.0341 63.3182,11.0682 61.0227,11.0682 C58.8523,11.0682 56.3068,12.0568 56.3068,14.5341 C56.3068,17.0114 58.9773,17.8296 60.7159,18.1591 C62.4546,18.4886 63.8409,19 63.8409,20.1364 C63.8409,21.2727 62.5114,21.75 61.0796,21.75 C59.9546,21.7614 58.8523,21.3977 57.9659,20.7046 C57.4546,20.3182 56.8977,20.2841 56.4318,20.6477 C55.9091,21.0568 55.8864,21.8409 56.4546,22.3864 C57.4432,23.3409 59.0796,23.8296 61.1705,23.8296 C63.8068,23.8296 66.1137,22.6136 66.1137,20.0568 C66.1137,17.5 63.6705,16.8068 61.5341,16.3296 Z M94.6818,20.4091 C94.2727,20.0796 93.6705,20.0909 93.1023,20.6364 C92.7387,21 92.2955,21.2955 91.8182,21.4886 C91.3409,21.6818 90.8182,21.7727 90.3068,21.7614 C89.125,21.7614 88.1705,21.3636 87.4318,20.5796 C86.6932,19.7955 86.3296,18.75 86.3296,17.4432 L86.3182,17.4432 C86.3182,16.1591 86.6932,15.125 87.4205,14.3409 C88.1477,13.5568 89.1023,13.1705 90.2955,13.1591 C90.8182,13.1477 91.3296,13.2386 91.8068,13.4318 C92.2841,13.625 92.7273,13.9091 93.0909,14.2841 C93.6591,14.8182 94.2614,14.8296 94.6705,14.5114 C94.7727,14.4318 94.8523,14.3409 94.9205,14.2273 C94.9887,14.1136 95.0227,13.9886 95.0341,13.8636 C95.0455,13.7386 95.0341,13.6136 94.9887,13.4886 C94.9432,13.3636 94.8864,13.2614 94.7955,13.1591 C93.6023,11.7841 92.1023,11.0909 90.2955,11.0909 C89.1705,11.0682 88.0568,11.3523 87.0796,11.9091 C86.1364,12.4432 85.375,13.2273 84.8637,14.1818 C84.3296,15.1932 84.0568,16.3182 84.0682,17.4546 L84.0796,17.4546 C84.0682,18.6023 84.3409,19.7273 84.875,20.7386 C85.3864,21.6932 86.1477,22.4773 87.0909,23.0114 C88.0682,23.5682 89.1818,23.8409 90.3068,23.8296 C92.1137,23.8296 93.6137,23.1364 94.8068,21.7614 C94.8977,21.6705 94.9546,21.5568 95,21.4318 C95.0455,21.3068 95.0568,21.1818 95.0455,21.0568 C95.0341,20.9318 95,20.8068 94.9318,20.6932 C94.8637,20.5796 94.7841,20.4773 94.6818,20.4091 Z M80.125,9.11364 C80.4773,9.11364 80.8296,9 81.1023,8.77273 C81.375,8.54546 81.5682,8.23864 81.6364,7.88637 C81.7046,7.53409 81.6591,7.18182 81.4887,6.86364 C81.3182,6.54546 81.0568,6.30682 80.7273,6.17046 C80.3977,6.03409 80.0341,6.01137 79.6932,6.11364 C79.3523,6.21591 79.0568,6.43182 78.8637,6.72727 C78.6705,7.02273 78.5796,7.375 78.6137,7.72728 C78.6477,8.07955 78.8068,8.40909 79.0568,8.65909 C79.1932,8.80682 79.3637,8.92046 79.5455,8.98864 C79.7273,9.05682 79.9205,9.11364 80.125,9.11364 Z M80.125,11.1591 C79.9659,11.1591 79.8182,11.1818 79.6705,11.2386 C79.5227,11.2955 79.3977,11.375 79.2841,11.4886 C79.1705,11.6023 79.0796,11.7273 79.0227,11.875 C78.9659,12.0227 78.9432,12.1818 78.9432,12.3295 L78.9432,22.5568 C78.9432,22.7159 78.9659,22.8636 79.0227,23.0114 C79.0796,23.1591 79.1705,23.2841 79.2727,23.3977 C79.3864,23.5114 79.5114,23.5909 79.6591,23.6477 C79.8068,23.7046 79.9546,23.7273 80.1137,23.7273 C80.2727,23.7386 80.4318,23.7046 80.5796,23.6477 C80.7273,23.5909 80.8637,23.5 80.9659,23.3864 C81.0682,23.2727 81.1591,23.1477 81.2159,23 C81.2727,22.8523 81.2955,22.7046 81.2955,22.5455 L81.2955,12.3182 C81.3068,12.1591 81.2841,12 81.2273,11.8636 C81.1705,11.7159 81.0909,11.5795 80.9773,11.4773 C80.8637,11.3636 80.7387,11.2841 80.5909,11.2273 C80.4318,11.1705 80.2727,11.1477 80.125,11.1591 Z" id="Shape" fill="#FFFFFF"></path>
        </g>
    </g>
</svg>