<svg width="43" height="47" viewBox="0 0 43 47" fill="none" xmlns="http://www.w3.org/2000/svg">
<path d="M10.0361 41.8901C11.2981 40.9571 12.2661 38.5861 12.2661 38.5861C12.2661 38.5861 13.3561 37.8291 13.6971 36.8631C14.0381 35.8971 13.7161 34.5851 13.7161 34.5851C13.7161 34.5851 14.6821 31.7491 14.2271 30.9541C13.7721 30.1591 11.8411 29.6471 11.8411 29.6471C11.8411 29.6471 11.0461 28.1701 9.39814 27.8861C8.31814 27.7721 7.23914 27.0341 7.23914 25.5001C7.23914 23.9661 8.77314 21.4661 8.77314 21.4661C8.77314 21.4661 10.3641 20.6881 10.5911 20.1201C10.8181 19.5521 10.8961 18.2281 10.8961 18.2281C10.8961 18.2281 12.4091 15.5581 11.5571 14.0231C11.2851 13.5341 10.0231 13.1711 10.0231 13.1711L8.25314 10.5161" stroke="white" stroke-width="1.5" stroke-miterlimit="10"/>
<path d="M37.284 37.784C35.354 36.859 31.978 36.086 31.978 36.086C31.978 36.086 29.511 33.34 27.892 33.567C26.273 33.794 24.625 35.612 24.625 35.612C24.625 35.612 24.739 38.964 24.227 39.135C23.716 39.305 22.352 38.396 21.5 39.078C20.648 39.76 21.139 41.682 21.139 41.682C21.139 41.682 19.284 42.26 19.057 42.885C18.83 43.51 19.732 44.9021 19.904 45.4361" stroke="white" stroke-width="1.5" stroke-miterlimit="10"/>
<path d="M24.45 5.716C23.487 5.574 22.502 5.5 21.5 5.5C10.454 5.5 1.5 14.454 1.5 25.5C1.5 36.546 10.454 45.5 21.5 45.5C32.546 45.5 41.5 36.546 41.5 25.5C41.5 23.411 41.18 21.397 40.585 19.503" stroke="white" stroke-width="1.5" stroke-miterlimit="10" stroke-linecap="round"/>
<path d="M31.5 17.5V24.5" stroke="white" stroke-width="1.5" stroke-miterlimit="10" stroke-linecap="round"/>
<path d="M31.5 17.5C35.9183 17.5 39.5 13.9183 39.5 9.5C39.5 5.08172 35.9183 1.5 31.5 1.5C27.0817 1.5 23.5 5.08172 23.5 9.5C23.5 13.9183 27.0817 17.5 31.5 17.5Z" stroke="white" stroke-width="1.5" stroke-miterlimit="10" stroke-linecap="square"/>
<path d="M31.5 13C33.433 13 35 11.433 35 9.5C35 7.567 33.433 6 31.5 6C29.567 6 28 7.567 28 9.5C28 11.433 29.567 13 31.5 13Z" fill="white"/>
</svg>
