<svg width="172" height="30" viewBox="0 0 172 30" fill="none" xmlns="http://www.w3.org/2000/svg">
<path fill-rule="evenodd" clip-rule="evenodd" d="M49.8297 22.2456C50.6928 22.2456 51.4878 22.0528 52.2147 21.6685C52.9417 21.2842 53.5545 20.8207 54.0547 20.2782V14.3423C52.3274 14.3873 50.869 14.5738 49.6763 14.9016C48.484 15.2292 47.6089 15.7382 47.0528 16.428C46.4963 17.1178 46.2183 17.9373 46.2183 18.8873C46.2183 19.7012 46.434 20.3854 46.8655 20.9397C47.297 21.4934 47.7858 21.85 48.3305 22.0081C48.8753 22.1662 49.3754 22.2456 49.8297 22.2456ZM50.6131 6.77756C52.339 6.77756 53.646 7.27488 54.5315 8.2702C55.3258 9.1972 55.7238 10.5094 55.7238 12.2052V23.3643H54.2246L54.1221 21.94C53.646 22.4377 53.0316 22.8616 52.2828 23.2119C51.533 23.5628 50.6359 23.7379 49.5913 23.7379C48.8643 23.7379 48.1885 23.6302 47.564 23.416C46.9395 23.2006 46.3998 22.8843 45.9455 22.466C45.4916 22.0477 45.1338 21.5338 44.8728 20.9227C44.6108 20.3117 44.4808 19.6225 44.4808 18.8533C44.4808 17.2702 45.0483 15.9984 46.184 15.0377C47.3198 14.0764 48.62 13.4774 50.0856 13.2398C51.5498 13.0024 52.873 12.8723 54.0547 12.8496V12.2052C54.0547 10.939 53.782 9.97769 53.2363 9.32161C52.6235 8.62046 51.7263 8.2702 50.5451 8.2702C49.6362 8.2702 48.8133 8.45162 48.0746 8.81352C47.3365 9.1745 46.707 9.54805 46.184 9.93266L45.5712 8.57603C45.7526 8.41731 46.0135 8.23683 46.3546 8.03271C46.6952 7.82892 47.0872 7.63177 47.5298 7.4393C47.9727 7.24716 48.4555 7.08845 48.9778 6.96464C49.5001 6.84023 50.0455 6.77756 50.6131 6.77756ZM66.1723 6.77756C67.6933 6.77756 68.898 7.0768 69.7835 7.6768C70.6693 8.27526 71.2709 9.16285 71.5892 10.3396C71.8167 11.0851 71.9292 12.0581 71.9292 13.2565V23.364H70.2261V13.358C70.2261 12.2502 70.1235 11.402 69.9195 10.8136C69.3295 9.14052 68.0115 8.30391 65.9676 8.30391C64.9903 8.30391 64.1048 8.5077 63.3105 8.91463C62.5148 9.32161 61.7996 9.81892 61.1634 10.4073V23.364H59.4942V7.18449H60.9928L61.1634 8.71089C61.754 8.19087 62.4693 7.73854 63.3105 7.35431C64.1507 6.9697 65.1045 6.77756 66.1723 6.77756ZM82.2523 8.22671C83.0248 8.22671 83.7458 8.36217 84.4158 8.63364C85.0856 8.90548 85.6025 9.19933 85.9659 9.51556V20.0987C85.4892 20.6864 84.8983 21.1841 84.1941 21.591C83.4899 21.9986 82.7065 22.2021 81.8436 22.2021C81.0033 22.2021 80.2596 22.0383 79.6123 21.7101C78.965 21.3825 78.4193 20.9132 77.9764 20.3021C77.5338 19.6917 77.1928 18.9566 76.9546 18.0973C76.716 17.2381 76.5961 16.2882 76.5961 15.2481C76.5961 14.2311 76.7667 13.1847 77.1073 12.1106C77.4487 11.0366 78.0676 10.1207 78.965 9.36343C79.8615 8.60532 80.9578 8.22671 82.2523 8.22671ZM96.3232 0.742747V7.00313H100.105V10.3948H96.3232V18.7056C96.3232 19.2259 96.4478 19.5876 96.6978 19.791C96.9477 19.9945 97.2432 20.0965 97.5836 20.0965C98.4238 20.0965 99.1509 19.8584 99.7639 19.3841L100.854 22.4028C100.332 22.787 99.6785 23.1039 98.8953 23.3521C98.1119 23.6016 97.2881 23.7256 96.4251 23.7256C95.5165 23.7256 94.7218 23.5392 94.0404 23.1657C93.359 22.7927 92.8705 22.29 92.575 21.6563C92.2802 21.0232 92.1322 20.3221 92.1322 19.5535V0.742747H96.3232ZM87.6696 0.696325V23.3208H86.1365L85.9659 21.8965C85.4664 22.4169 84.8581 22.8465 84.1434 23.1854C83.4276 23.5249 82.5927 23.6944 81.6395 23.6944C80.0947 23.6944 78.7888 23.2534 77.7211 22.3715C76.6534 21.4903 75.9204 20.3928 75.5233 19.0813C75.126 17.7698 74.9273 16.4696 74.9273 15.1807C74.9273 13.9596 75.0975 12.8345 75.4376 11.8054C75.7794 10.7767 76.2561 9.88317 76.8689 9.12594C77.4825 8.36815 78.2263 7.78041 79.1011 7.36178C79.9751 6.94384 80.9578 6.73407 82.0476 6.73407C83.002 6.73407 83.797 6.84775 84.4326 7.07327C85.0694 7.29976 85.58 7.53725 85.9659 7.78542V0.696325H87.6696ZM111.364 15.7163V19.0405C111.001 19.3795 110.564 19.6629 110.053 19.8885C109.542 20.1152 109.014 20.228 108.468 20.228C107.741 20.228 107.18 20.0636 106.782 19.736C106.385 19.4078 106.186 18.9725 106.186 18.4301C106.186 17.9104 106.362 17.4292 106.714 16.9881C107.066 16.5472 107.696 16.236 108.605 16.0559C109.445 15.8971 110.365 15.7843 111.364 15.7163ZM109.423 6.59188C110.808 6.59188 111.972 6.86367 112.914 7.40607C113.857 7.94846 114.539 8.71163 114.959 9.6953C115.38 10.6789 115.59 11.7253 115.59 12.8337V23.3481H111.705L111.535 22.1273C111.081 22.6249 110.501 23.0149 109.797 23.2977C109.093 23.5799 108.32 23.7217 107.481 23.7217C106.777 23.7217 106.101 23.602 105.454 23.3658C104.806 23.1283 104.232 22.7887 103.733 22.3478C103.233 21.9068 102.83 21.3644 102.523 20.72C102.217 20.0749 102.063 19.346 102.063 18.5316C102.063 17.4014 102.38 16.4344 103.018 15.6319C103.653 14.8287 104.437 14.2469 105.368 13.885C106.299 13.5225 107.151 13.274 107.924 13.1386C108.241 13.0929 109.377 12.9574 111.33 12.7317V12.4942C111.33 11.5892 111.097 10.9448 110.632 10.5612C110.167 10.176 109.524 9.98442 108.707 9.98381C107.889 9.98381 107.105 10.1592 106.356 10.5101C105.607 10.8604 105.038 11.2056 104.652 11.5442L103.255 8.59288C103.574 8.32201 104.062 8.02213 104.721 7.69425C105.379 7.3667 106.135 7.10084 106.987 6.8971C107.838 6.69391 108.65 6.59188 109.423 6.59188ZM123.306 0.696325V18.538C123.306 19.1264 123.425 19.5276 123.664 19.7424C123.902 19.9573 124.238 20.065 124.669 20.065C125.1 20.065 125.554 19.9629 126.031 19.7595L126.781 22.9476C126.6 23.0616 126.191 23.2134 125.554 23.4056C124.919 23.5977 124.214 23.6941 123.442 23.6941C122.443 23.6941 121.597 23.4963 120.904 23.1007C120.211 22.7045 119.734 22.1791 119.473 21.5233C119.212 20.8675 119.082 20.1438 119.082 19.3525V0.696325H123.306ZM135.119 9.95011C135.436 9.95011 135.834 10.0512 136.311 10.255C136.788 10.4585 137.191 10.8094 137.52 11.3067C137.85 11.8041 138.049 12.4375 138.116 13.2063H131.882C131.995 12.1206 132.381 11.3067 133.04 10.764C133.699 10.221 134.392 9.95011 135.119 9.95011ZM167.287 0.742747V7.00313H171.069V10.3948H167.287V18.7056C167.287 19.2259 167.412 19.5876 167.662 19.791C167.912 19.9945 168.207 20.0965 168.548 20.0965C169.388 20.0965 170.115 19.8584 170.728 19.3841L171.818 22.4028C171.296 22.787 170.642 23.1039 169.859 23.3521C169.076 23.6016 168.252 23.7256 167.389 23.7256C166.481 23.7256 165.686 23.5392 165.005 23.1657C164.323 22.7927 163.835 22.29 163.539 21.6563C163.244 21.0232 163.096 20.3221 163.096 19.5535V0.742747H167.287ZM135.119 6.59188C136.799 6.59188 138.196 6.99881 139.309 7.813C140.422 8.62691 141.217 9.71768 141.694 11.0859C142.171 12.4541 142.41 13.9185 142.41 15.4785V16.225H131.78C131.87 17.6046 132.302 18.5993 133.074 19.2103C133.847 19.8207 134.846 20.1256 136.073 20.1256C137.14 20.1256 138.088 19.9562 138.917 19.6173C139.746 19.2778 140.309 18.9608 140.604 18.6673L141.728 22.0929C141.296 22.4098 140.826 22.67 140.314 22.8735C139.803 23.0769 139.082 23.2634 138.151 23.4335C137.219 23.6023 136.333 23.6987 135.493 23.7213C134.426 23.7213 133.409 23.5519 132.444 23.2124C131.479 22.8735 130.633 22.3475 129.906 21.6357C129.179 20.9232 128.6 20.0355 128.168 18.9722C127.737 17.9101 127.521 16.6433 127.521 15.1736C127.521 13.7941 127.72 12.5729 128.117 11.5105C128.514 10.4475 129.06 9.55386 129.753 8.8301C130.445 8.10722 131.251 7.55285 132.171 7.16862C133.091 6.78402 134.074 6.59188 135.119 6.59188ZM153.656 6.59188C154.996 6.59188 156.126 6.88605 157.046 7.47444C157.966 8.06214 158.613 8.92707 158.988 10.0689C159.363 11.2112 159.55 12.4151 159.55 13.6813V23.3481H155.325V14.0205C155.325 12.777 155.064 11.8157 154.542 11.1373C154.019 10.4591 153.293 10.1199 152.362 10.1199C151.702 10.1199 151.095 10.2893 150.539 10.6289C149.981 10.9681 149.499 11.341 149.09 11.748V23.3481H144.866V6.99913H148.716L148.92 8.28798C149.579 7.74531 150.323 7.32733 151.152 7.03316C151.98 6.73894 152.816 6.59188 153.656 6.59188ZM34.1389 10.1266C35.3193 10.1266 36.3189 10.5276 37.1367 11.3301C37.9535 12.1333 38.3632 13.3374 38.3632 14.9431C38.3632 16.639 37.9428 17.9278 37.1023 18.8098C36.262 19.6917 35.1715 20.1327 33.8317 20.1327C33.5362 20.1327 32.9459 20.0312 32.0605 19.8271V10.4992C32.8099 10.251 33.5021 10.1266 34.1389 10.1266ZM32.0605 0.696325V6.93781C33.0595 6.68894 33.9794 6.5649 34.8191 6.5649C36.6818 6.5649 38.2155 7.0449 39.4192 8.0062C40.6229 8.96718 41.4347 10.0872 41.8551 11.3644C42.2753 12.6423 42.485 13.8014 42.485 14.8411C42.485 16.4242 42.2582 17.7754 41.8042 18.8948C41.3499 20.0142 40.7365 20.9295 39.9646 21.642C39.1917 22.3544 38.2892 22.8748 37.2559 23.2024C36.2218 23.5306 35.138 23.6944 34.0023 23.6944C32.9345 23.6944 31.8899 23.5703 30.8674 23.3208C29.846 23.0726 28.8346 22.7337 27.8355 22.3034V0.696325H32.0605ZM17.3816 10.1529C17.9944 10.1529 18.5853 10.3287 19.1528 10.6789C19.7211 11.0298 20.1871 11.5722 20.5505 12.3077C20.914 13.0425 21.0953 13.9751 21.0953 15.1059C21.0953 15.8067 20.9931 16.5356 20.7887 17.2934C20.5841 18.0512 20.181 18.707 19.5793 19.2607C18.9773 19.815 18.2452 20.0922 17.3816 20.0922C16.7688 20.0922 16.2297 19.9618 15.7637 19.7023C15.298 19.4421 14.9112 19.0856 14.6053 18.6332C14.2984 18.181 14.0655 17.6556 13.9071 17.0559C13.7483 16.4568 13.6685 15.8067 13.6685 15.1059C13.6685 14.4271 13.7644 13.7153 13.958 12.9688C14.1512 12.2223 14.5483 11.5665 15.1503 11.0015C15.7521 10.4358 16.4958 10.1529 17.3816 10.1529ZM6.83018 6.59188V22.4136C6.83018 24.3046 6.43634 25.8423 5.64636 27.0273C4.85671 28.2116 3.60365 29.2025 1.88806 30L0 26.6853C0.641009 26.2518 1.14484 25.8367 1.5103 25.438C1.87631 25.0392 2.14524 24.5668 2.31697 24.0193C2.48845 23.4731 2.5749 22.9377 2.5749 22.4136V6.59188H6.83018ZM17.3816 6.59188C19.2671 6.59188 20.8283 7.08887 22.0659 8.08452C23.3048 9.07919 24.1443 10.2323 24.5875 11.5439C25.0308 12.8554 25.2516 14.0429 25.2516 15.1059C25.2516 16.756 24.8831 18.2944 24.1443 19.7187C23.4069 21.143 22.4243 22.1667 21.1978 22.7884C19.9713 23.4114 18.6995 23.7213 17.3816 23.7213C16.0642 23.7213 14.9112 23.4725 13.9238 22.9749C12.9359 22.4772 12.118 21.8221 11.4708 21.0076C10.8235 20.1937 10.335 19.2726 10.0054 18.2433C9.67607 17.2146 9.51162 16.1683 9.51162 15.1059C9.51162 13.4545 9.8808 11.9285 10.6188 10.5265C11.3569 9.12422 12.3395 8.11789 13.5654 7.50777C14.7925 6.89677 16.0642 6.59188 17.3816 6.59188ZM4.57896 0C5.38381 0 5.99339 0.24441 6.40594 0.73388C6.81946 1.22367 7.02596 1.75725 7.02596 2.33585C7.02596 2.93682 6.81946 3.48204 6.40594 3.97151C5.99339 4.46131 5.38381 4.70572 4.57896 4.70572C3.75233 4.70572 3.13231 4.46131 2.71883 3.97151C2.30503 3.48204 2.09815 2.93682 2.09815 2.33585C2.09815 1.75725 2.30503 1.22367 2.71883 0.73388C3.13231 0.24441 3.75233 0 4.57896 0Z" fill="white"/>
</svg>
