<svg width="79" height="27" viewBox="0 0 79 27" fill="none" xmlns="http://www.w3.org/2000/svg">
<g clip-path="url(#clip0_2_8)">
<path d="M56.4829 15.9311L57.3948 9.49429L54.7664 15.9311H56.4829Z" fill="white"/>
<path d="M32.774 7.50961H31.4867L30.1457 12.4981H31.3258C31.9158 12.4981 32.3449 12.1227 32.5595 11.3717L33.3104 8.52877C33.525 7.88509 33.3641 7.50961 32.774 7.50961Z" fill="white"/>
<path d="M24.138 7.34869C23.3334 7.34869 22.7434 7.88509 22.5824 8.63605L20.115 17.8621C19.9004 18.6131 20.2223 19.1495 21.0269 19.1495C21.8315 19.1495 22.4215 18.6131 22.5824 17.8621L25.0499 8.63605C25.2108 7.88509 24.889 7.34869 24.138 7.34869Z" fill="white"/>
<path d="M10.8353 0C7.29504 0 4.2912 2.52108 3.64752 5.95404L0 26.4982H67.9619C71.073 26.4982 73.755 24.2453 74.345 21.1878L78.0998 0H10.8353ZM14.0537 21.1342L14.3219 20.0614C13.6782 20.9732 12.6054 21.4024 11.5326 21.4024C9.44064 21.4024 8.52876 19.9004 9.1188 17.8085L11.5326 8.74332C12.069 6.75864 13.9464 5.14944 16.3066 5.14944C18.6131 5.14944 19.4713 6.75864 18.9349 8.74332L18.3449 10.8353H15.9847L16.5748 8.5824C16.7357 7.93872 16.5211 7.40232 15.6629 7.40232C14.8583 7.40232 14.2682 7.99236 14.0537 8.63604L11.5326 18.023C11.3717 18.7204 11.6399 19.2568 12.4981 19.2568C13.3564 19.2568 13.9464 18.6667 14.1073 18.023L14.8583 15.2338H13.6246L14.1073 13.3564H17.7548L15.6629 21.2414H14.0537V21.1342ZM20.3296 21.4024C18.0767 21.4024 17.0039 19.8468 17.5939 17.6476L19.9541 8.79696C20.5441 6.59772 22.4215 5.04216 24.728 5.04216C27.0346 5.04216 28.0537 6.59772 27.4637 8.79696L25.1035 17.6476C24.5135 19.8468 22.6361 21.4024 20.3296 21.4024ZM33.0959 18.8813L32.5058 21.1878H31.433C30.4675 21.1878 30.3602 20.2223 30.6821 18.9886L31.594 15.6092C31.7549 14.9656 31.594 14.4292 30.8966 14.4292H29.6629L27.8928 21.0805H25.3717L29.5556 5.364H33.5786C35.3488 5.364 36.4216 6.32952 35.8315 8.47512L35.0806 11.2644C34.8124 12.3372 34.115 13.0882 32.9886 13.4636C33.9005 13.8391 34.2223 14.6437 33.9541 15.6629L33.7932 16.1993L33.2568 18.2912L33.0959 18.8813ZM33.6323 21.1342L37.8698 5.364H40.3909L36.1534 21.1342H33.6323ZM43.6093 21.1342H37.4407L41.6783 5.364H44.1994L40.6055 18.8276H44.1994L43.6093 21.1342ZM55.7856 21.1342L56.2147 18.0767H53.9082L52.6208 21.1342H50.4216H50.368H44.253L48.4906 5.364H50.958L47.3641 18.8276H51.2798L57.1266 5.364H59.9159L58.3067 21.1342H55.7856ZM68.981 8.68968L68.6056 10.0843H66.3527L66.7282 8.68968C66.9427 7.83144 66.7282 7.2414 65.9236 7.2414C65.1726 7.2414 64.5826 7.72416 64.368 8.52876C63.9389 10.0843 64.4216 10.8353 65.4944 12.3908C66.6209 14 67.3182 15.5556 66.7818 17.5403C66.0845 20.0614 64.0998 21.4024 62.0615 21.4024C59.8086 21.4024 58.7358 20.0077 59.3258 17.8085L59.7013 16.4138H62.0078L61.6324 17.7548C61.3642 18.774 61.686 19.3104 62.5442 19.3104C63.4561 19.3104 63.9925 18.774 64.2607 17.9158C64.6362 16.5211 64.2071 15.502 63.2416 14.1073C62.276 12.82 61.2569 10.9426 61.7933 8.95788C62.3833 6.81228 64.0462 5.0958 66.5136 5.0958C68.5519 5.0958 69.5711 6.54408 68.981 8.68968Z" fill="white"/>
</g>
<defs>
<clipPath id="clip0_2_8">
<rect width="78.3144" height="26.82" fill="white"/>
</clipPath>
</defs>
</svg>
