<svg width="47" height="47" viewBox="0 0 47 47" fill="none" xmlns="http://www.w3.org/2000/svg">
<path d="M36.5521 37.6439L40.4481 23.3569" stroke="white" stroke-width="1.5" stroke-miterlimit="10"/>
<path d="M15.5 41.5H31.5" stroke="white" stroke-width="1.5" stroke-miterlimit="10"/>
<path d="M6.55206 23.3582L10.4481 37.6442" stroke="white" stroke-width="1.5" stroke-miterlimit="10"/>
<path d="M20.3431 7.95508L8.65506 17.0461" stroke="white" stroke-width="1.5" stroke-miterlimit="10"/>
<path d="M23.5001 21.5V9.5" stroke="white" stroke-width="1.5" stroke-miterlimit="10"/>
<path d="M21.003 28.6221L13.997 38.3781" stroke="white" stroke-width="1.5" stroke-miterlimit="10"/>
<path d="M25.997 28.6221L33.002 38.3781" stroke="white" stroke-width="1.5" stroke-miterlimit="10"/>
<path d="M37.772 20.95L27.225 24.0509" stroke="white" stroke-width="1.5" stroke-miterlimit="10"/>
<path d="M38.345 17.0461L26.657 7.95508" stroke="white" stroke-width="1.5" stroke-miterlimit="10"/>
<path d="M19.775 24.0509L9.22803 20.95" stroke="white" stroke-width="1.5" stroke-miterlimit="10"/>
<path d="M23.5 29.5C25.7092 29.5 27.5 27.7091 27.5 25.5C27.5 23.2909 25.7092 21.5 23.5 21.5C21.2909 21.5 19.5 23.2909 19.5 25.5C19.5 27.7091 21.2909 29.5 23.5 29.5Z" stroke="white" stroke-width="1.5" stroke-miterlimit="10" stroke-linecap="square"/>
<path d="M23.5 9.5C25.7092 9.5 27.5 7.70914 27.5 5.5C27.5 3.29086 25.7092 1.5 23.5 1.5C21.2909 1.5 19.5 3.29086 19.5 5.5C19.5 7.70914 21.2909 9.5 23.5 9.5Z" stroke="white" stroke-width="1.5" stroke-miterlimit="10" stroke-linecap="square"/>
<path d="M41.5 23.5C43.7092 23.5 45.5 21.7091 45.5 19.5C45.5 17.2909 43.7092 15.5 41.5 15.5C39.2909 15.5 37.5 17.2909 37.5 19.5C37.5 21.7091 39.2909 23.5 41.5 23.5Z" stroke="white" stroke-width="1.5" stroke-miterlimit="10" stroke-linecap="square"/>
<path d="M5.50003 23.5C7.70917 23.5 9.50003 21.7091 9.50003 19.5C9.50003 17.2909 7.70917 15.5 5.50003 15.5C3.29089 15.5 1.50003 17.2909 1.50003 19.5C1.50003 21.7091 3.29089 23.5 5.50003 23.5Z" stroke="white" stroke-width="1.5" stroke-miterlimit="10" stroke-linecap="square"/>
<path d="M11.5 45.5C13.7092 45.5 15.5 43.7091 15.5 41.5C15.5 39.2909 13.7092 37.5 11.5 37.5C9.29089 37.5 7.50003 39.2909 7.50003 41.5C7.50003 43.7091 9.29089 45.5 11.5 45.5Z" stroke="white" stroke-width="1.5" stroke-miterlimit="10" stroke-linecap="square"/>
<path d="M35.5 45.5C37.7092 45.5 39.5 43.7091 39.5 41.5C39.5 39.2909 37.7092 37.5 35.5 37.5C33.2909 37.5 31.5 39.2909 31.5 41.5C31.5 43.7091 33.2909 45.5 35.5 45.5Z" stroke="white" stroke-width="1.5" stroke-miterlimit="10" stroke-linecap="square"/>
</svg>
