<svg width="106" height="24" viewBox="0 0 106 24" fill="none" xmlns="http://www.w3.org/2000/svg">
<g clip-path="url(#clip0_110_2)">
<path d="M90.0089 24C88.5194 24 87.2693 23.7887 86.2586 23.3661C85.3065 22.9944 84.5017 22.322 83.9668 21.4511C83.4511 20.5955 83.1932 19.5338 83.1932 18.266V16.5659C83.1932 15.2449 83.5065 14.1648 84.133 13.3255C84.7595 12.4862 85.6845 11.9113 86.908 11.601V11.304C85.9596 11.0384 85.1272 10.4634 84.543 9.67049C84.0089 8.91689 83.7429 7.97045 83.7429 6.83783V5.35058C83.7429 4.16107 83.9734 3.16882 84.4344 2.37385C84.9196 1.56423 85.6616 0.940082 86.5423 0.600667C87.647 0.174256 88.8251 -0.0298679 90.0089 1.69999e-06C91.3993 1.69999e-06 92.5578 0.197268 93.4843 0.591801C94.3577 0.939644 95.0944 1.56197 95.5833 2.36498C96.0547 3.15996 96.2911 4.1522 96.2926 5.34171V6.82453C96.2926 7.95715 96.0266 8.90359 95.4924 9.65719C94.909 10.4546 94.0758 11.0342 93.1252 11.304V11.6055C94.3487 11.9158 95.2708 12.4906 95.8914 13.3299C96.512 14.1692 96.8238 15.2494 96.8268 16.5704V18.2704C96.8268 19.5382 96.5711 20.5999 96.0599 21.4555C95.5287 22.3271 94.7258 23 93.7747 23.3705C92.7639 23.7917 91.5087 24.0015 90.0089 24V24ZM90.0089 21.8345C91.2885 21.8345 92.2327 21.5316 92.8415 20.9258C93.4503 20.3199 93.7555 19.403 93.7569 18.1751V16.2845C93.7569 15.0285 93.4511 14.0975 92.8393 13.4917C92.2276 12.8859 91.2833 12.5829 90.0067 12.5829C88.7521 12.5829 87.8131 12.8859 87.1895 13.4917C86.5659 14.0975 86.2549 15.0285 86.2564 16.2845V18.1751C86.2564 19.4104 86.5674 20.3303 87.1895 20.9346C87.8116 21.539 88.7514 21.8389 90.0089 21.8345V21.8345ZM90.0089 10.4839C91.1526 10.4839 92.003 10.2061 92.56 9.65054C93.1171 9.09494 93.3949 8.25564 93.3934 7.13262V5.48356C93.3934 4.36203 93.1156 3.52272 92.56 2.96565C92.0044 2.40857 91.154 2.13077 90.0089 2.13225C88.877 2.13225 88.0296 2.41005 87.4666 2.96565C86.9036 3.52124 86.6236 4.36055 86.6265 5.48356V7.13262C86.6265 8.25564 86.9065 9.09494 87.4666 9.65054C88.0266 10.2061 88.874 10.4839 90.0089 10.4839ZM102.867 23.6675V6.46768H98.283V4.51718C99.9379 4.47285 101.079 4.3672 101.707 4.20023C101.987 4.14239 102.248 4.01843 102.47 3.83872C102.692 3.65902 102.867 3.4288 102.982 3.16735C103.204 2.64426 103.365 1.6993 103.465 0.332473H105.832V23.6675H102.867ZM36.4123 18.5829H47.7806V23.6986H28.9405V0.36572H47.4326V5.48135H36.4123V9.58183H46.7122V14.1323H36.4123V18.5829ZM49.6934 23.6986L56.4758 0.36572H62.9257L69.7968 23.6986H64.3753L63.3424 19.7488H55.6757L54.625 23.6986H49.6934ZM56.5755 16.0318H62.4603L60.8423 9.82564C60.5874 8.89029 60.3657 8.00592 60.1773 7.16587C59.9889 6.32583 59.8227 5.49021 59.6786 4.65904H59.3284C59.1954 5.50425 59.0395 6.34577 58.8607 7.1836C58.6819 8.02143 58.4706 8.89916 58.2268 9.81678L56.5755 16.0318ZM73.0506 23.6986V3.36683H67.9837V0.36572H81.788V3.36683H76.7499V23.6986H73.0506ZM0 23.703V0.367937H18.1995C20.7337 0.367937 22.6228 0.851129 23.867 1.81751C25.1112 2.7839 25.7333 4.25638 25.7333 6.23495V6.31918C25.7333 7.71851 25.4141 8.84079 24.7758 9.686C24.1374 10.5312 23.1681 11.0979 21.8678 11.386V11.7185C23.3956 12.0333 24.5371 12.6502 25.2922 13.5693C26.0473 14.4884 26.4278 15.6882 26.4337 17.1688V17.2508C26.4337 19.4186 25.7917 21.0358 24.5076 22.1027C23.2235 23.1696 21.2767 23.703 18.6672 23.703H0ZM14.0658 9.20281C14.7883 9.20281 15.3306 9.06096 15.6927 8.77725C15.8768 8.62243 16.0218 8.4263 16.1158 8.20482C16.2098 7.98334 16.2501 7.74279 16.2335 7.50277V7.43406C16.2506 7.19172 16.2106 6.94873 16.1167 6.72467C16.0227 6.50061 15.8775 6.30174 15.6927 6.14407C15.3321 5.86037 14.7898 5.71851 14.0658 5.71851H9.56631V9.20281H14.0658ZM14.2342 18.3524C14.99 18.3524 15.5641 18.1862 15.9409 17.8515C16.3177 17.5168 16.5172 17.0181 16.5172 16.3509V16.2845C16.5347 16.0201 16.4919 15.7553 16.392 15.51C16.2922 15.2646 16.1379 15.0451 15.9409 14.8681C15.5574 14.5467 14.99 14.3849 14.2342 14.3849H9.56631V18.3524H14.2342Z" fill="#FAFAFA"/>
</g>
<defs>
<clipPath id="clip0_110_2">
<rect width="105.832" height="24" fill="white"/>
</clipPath>
</defs>
</svg>
