<svg width="611" height="139" viewBox="0 0 611 139" fill="none" xmlns="http://www.w3.org/2000/svg">
<path d="M607.343 45.1305L605.56 66.2179H596.956C583.18 66.2179 576.047 77.2297 576.047 87.7957V135.454H551.66V45.086H574.754L575.244 56.3653C580.103 48.6525 588.619 45.086 599.006 45.086H607.343V45.1305ZM438.198 135.499H413.812V87.7511C413.812 77.7647 412.92 65.1479 398.832 65.1479C385.279 65.1479 379.929 74.956 379.929 86.3691V135.632H355.543V45.1751H378.146L378.637 56.7665C383.496 49.0538 392.502 42.9906 405.876 42.9906C430.441 42.9906 438.288 60.5114 438.288 78.8793V135.543H438.198V135.499ZM344.888 114.367L343.194 134.964C337.353 136.569 332.093 137.148 325.851 137.148C302.847 137.148 296.204 126.627 296.204 105.45V19.7633H320.591V45.1305H344.888L343.194 66.2179H320.591V103.489C320.591 112.004 322.953 116.551 331.692 116.551C335.436 116.551 339.716 116.061 344.888 114.367ZM288.179 45.1305L286.307 66.2179H279.664C265.888 66.2179 259.067 77.2297 259.067 87.7957V135.454H234.681V45.086H257.774L258.265 56.3653C263.124 48.6525 271.639 45.086 282.027 45.086H288.179V45.1305ZM124.518 125.468C107.978 134.295 91.4381 139.422 69.6374 138.842C29.1122 137.639 0 112.494 0 69.9628C0 27.6543 29.5134 0.726685 69.7711 0.0133703C90.1898 -0.298705 108.424 4.87283 122.69 17.445L105.571 34.7875C96.7433 27.2531 83.7699 22.884 68.2108 23.5973C42.8435 24.8011 27.6855 43.2135 27.2843 68.4916C26.9722 95.9542 43.7351 114.768 69.994 115.437C82.3879 115.749 91.2152 114.055 98.8387 110.666V82.6242H71.5098L73.3823 59.6198H124.607V125.468H124.518ZM540.737 98.8075H473.864C475.737 110.399 484.876 117.354 496.155 117.621C507.167 117.933 513.275 114.545 521.344 106.431L537.305 118.602C526.025 132.556 512.428 137.639 496.958 137.639C469.718 137.639 449.389 118.602 449.389 90.2923C449.389 61.9826 469.718 42.946 495.977 42.946C525 42.946 540.871 60.4668 540.871 91.6744V98.8075H540.737V98.8075ZM516.262 79.9938C515.459 68.5808 506.944 61.3585 495.174 61.8489C483.271 62.3393 475.469 69.9628 473.775 79.9938H516.262ZM219.344 76.2489V135.365H197.811L197.321 126.448C190.678 134.652 179.978 137.549 168.967 137.549C152.337 137.549 136.644 129.346 136.377 110.31C135.887 80.3059 170.17 78.2105 191.659 78.2105H195.939V77.0068C195.939 67.1096 189.385 61.7597 177.036 61.7597C168.119 61.7597 159.381 65.3263 152.962 71.3895L138.874 57.1232C151.669 46.7355 164.954 42.8569 179.087 42.8569C206.951 42.8569 219.344 55.8303 219.344 76.2489ZM195.85 96.0434H192.461C180.87 96.0434 160.674 96.623 160.674 108.705C160.763 125.735 195.85 120.296 195.85 99.7883V96.0434V96.0434ZM588.307 124.977C588.307 119.226 592.676 114.857 598.204 114.857C603.643 114.857 608.012 119.226 608.012 124.977C608.012 130.818 603.643 135.187 598.204 135.187C592.676 135.097 588.307 130.818 588.307 124.977ZM598.204 137.193C604.847 137.193 610.508 132.021 610.508 125.022C610.508 118.067 604.847 112.94 598.204 112.94C591.561 112.94 585.81 118.112 585.81 125.022C585.855 132.021 591.472 137.193 598.204 137.193ZM595.663 125.869H598.159L601.815 131.932H604.178L600.21 125.78C602.305 125.468 603.866 124.398 603.866 121.901C603.866 119.137 602.172 117.933 598.917 117.933H593.567V132.021H595.663V125.869ZM595.663 124.086V119.717H598.516C599.987 119.717 601.592 120.029 601.592 121.812C601.592 123.996 599.987 124.086 598.204 124.086H595.663Z" fill="white"/>
</svg>
