<svg width="267" height="61" viewBox="0 0 267 61" fill="none" xmlns="http://www.w3.org/2000/svg">
<g clip-path="url(#clip0_2331_7092)">
<path d="M226.833 60.597C223.079 60.597 219.929 60.0636 217.382 58.9964C214.982 58.0579 212.954 56.36 211.606 54.1612C210.306 52.001 209.656 49.3204 209.656 46.1193V41.8269C209.656 38.4915 210.446 35.7642 212.025 33.645C213.604 31.5259 215.935 30.0746 219.018 29.2911V28.5412C216.628 27.8705 214.531 26.4187 213.058 24.4167C211.712 22.5139 211.042 20.1243 211.042 17.2646V13.5094C211.042 10.5061 211.623 8.00081 212.784 5.99357C214.007 3.94939 215.877 2.37349 218.097 1.51651C220.88 0.439875 223.849 -0.0755133 226.833 -9.61964e-05C230.337 -9.61964e-05 233.256 0.497977 235.591 1.49413C237.793 2.37239 239.649 3.94368 240.881 5.97118C242.069 7.97842 242.664 10.4837 242.668 13.4871V17.231C242.668 20.0907 241.998 22.4804 240.652 24.3831C239.182 26.3965 237.082 27.86 234.686 28.5412V29.3023C237.77 30.0858 240.093 31.5371 241.657 33.6562C243.221 35.7754 244.007 38.5027 244.015 41.8381V46.1304C244.015 49.3316 243.37 52.0122 242.082 54.1724C240.743 56.3734 238.72 58.0719 236.323 59.0076C233.776 60.0709 230.613 60.6009 226.833 60.597ZM226.833 55.1293C230.057 55.1293 232.437 54.3645 233.971 52.8349C235.506 51.3052 236.274 48.9902 236.278 45.8898V41.1161C236.278 37.9449 235.507 35.5944 233.966 34.0648C232.424 32.5351 230.044 31.7703 226.827 31.7703C223.666 31.7703 221.299 32.5351 219.728 34.0648C218.156 35.5944 217.372 37.9449 217.376 41.1161V45.8898C217.376 49.0088 218.16 51.3313 219.728 52.8572C221.295 54.3832 223.664 55.1405 226.833 55.1293ZM226.833 26.4705C229.715 26.4705 231.858 25.7692 233.262 24.3663C234.666 22.9635 235.366 20.8444 235.362 18.0089V13.8452C235.362 11.0135 234.662 8.89432 233.262 7.48779C231.862 6.08126 229.719 5.37984 226.833 5.38358C223.98 5.38358 221.845 6.08496 220.426 7.48779C219.007 8.89062 218.302 11.0097 218.309 13.8452V18.0089C218.309 20.8444 219.014 22.9635 220.426 24.3663C221.837 25.7692 223.973 26.4705 226.833 26.4705ZM259.236 59.7575V16.33H247.684V11.4052C251.855 11.2933 254.732 11.0265 256.314 10.6049C257.019 10.4589 257.678 10.1459 258.237 9.69218C258.796 9.23849 259.238 8.6572 259.526 7.99706C260.085 6.67632 260.491 4.29042 260.744 0.839355H266.71V59.7575H259.236ZM91.7631 46.9195H120.413V59.8359H72.9334V0.9233H119.536V13.8396H91.7631V24.1928H117.72V35.6821H91.7631V46.9195ZM125.233 59.8359L142.326 0.9233H158.58L175.896 59.8359H162.233L159.63 49.8632H140.309L137.661 59.8359H125.233ZM142.577 40.4782H157.407L153.329 24.8084C152.687 22.4468 152.129 20.2138 151.654 18.0928C151.179 15.9718 150.76 13.862 150.397 11.7634H149.514C149.179 13.8974 148.787 16.0222 148.336 18.1376C147.885 20.253 147.353 22.4692 146.738 24.786L142.577 40.4782ZM184.096 59.8359V8.50073H171.327V0.9233H206.115V8.50073H193.419V59.8359H184.096ZM0 59.8471V0.928896H45.8648C52.2512 0.928896 57.0123 2.1489 60.1476 4.5889C63.2829 7.02889 64.8508 10.7467 64.8508 15.7424V15.955C64.8508 19.4882 64.0465 22.3218 62.4378 24.4559C60.8291 26.5899 58.3864 28.0207 55.1092 28.7482V29.5877C58.9595 30.3824 61.8362 31.94 63.7393 34.2606C65.6423 36.5813 66.6009 39.6107 66.6159 43.3491V43.5561C66.6159 49.0293 64.9977 53.1128 61.7619 55.8065C58.5261 58.5 53.6197 59.8471 47.0434 59.8471H0ZM35.4473 23.2359C37.2683 23.2359 38.635 22.8777 39.5473 22.1614C40.0114 21.7705 40.3768 21.2752 40.6136 20.7161C40.8504 20.1569 40.9521 19.5495 40.9102 18.9435V18.77C40.9534 18.1581 40.8526 17.5446 40.6159 16.9788C40.3792 16.4132 40.0131 15.911 39.5473 15.5129C38.6386 14.7966 37.272 14.4384 35.4473 14.4384H24.1082V23.2359H35.4473ZM35.8718 46.3375C37.7766 46.3375 39.2233 45.9178 40.1729 45.0727C41.1225 44.2277 41.6252 42.9685 41.6252 41.284V41.1161C41.6693 40.4488 41.5614 39.7801 41.3098 39.1607C41.0582 38.5412 40.6695 37.9871 40.1729 37.5401C39.2065 36.7286 37.7766 36.3201 35.8718 36.3201H24.1082V46.3375H35.8718Z" fill="black"/>
</g>
<defs>
<clipPath id="clip0_2331_7092">
<rect width="267" height="61" fill="white"/>
</clipPath>
</defs>
</svg>
